<?xml version="1.0" encoding="utf-8"?>
<!-- Generator: Adobe Illustrator 18.1.1, SVG Export Plug-In . SVG Version: 6.00 Build 0)  -->
<svg version="1.1" id="Layer_1" xmlns="http://www.w3.org/2000/svg" xmlns:xlink="http://www.w3.org/1999/xlink" x="0px" y="0px"
	 viewBox="0 0 118.4 14.1" enable-background="new 0 0 118.4 14.1" xml:space="preserve">
<g>
	<g>
		<path fill="#FFFFFF" d="M0,14L4.8,0c0,0,8.2,0,9.3,0c1.9,0,2.8,0.3,3.9,1.1c0.9,0.7,6.9,5.5,9.1,7.2c0.5,0.4,0.9,0.6,1.2,0.7
			c0.5,0.2,1.4,0.3,1.4,0.3L32.9,0h6.9l-4.8,14c0,0-7.1,0-9,0c-0.3,0-0.6,0-1.1,0c-1.7-0.1-2.5-0.6-3.6-1.3
			c-0.6-0.4-9.3-7.5-9.6-7.7c-0.6-0.5-1.7-0.5-1.7-0.5L7,14L0,14z"/>
		<path fill="#FFFFFF" d="M65.5,14C57.8,14,39,14,39,14l1.2-3.4l23.4,0c0,0,0.3,0,1,0c1-0.1,1.5-0.3,1.7-1.3c0.1-0.6-0.1-0.9-0.8-1
			c-0.5-0.1-1.3-0.1-1.3-0.1s-14.7,0-15.4,0c-0.8,0-2.5,0-3.9-0.1c-1.3-0.1-2.1-0.6-2.6-1.3c-0.3-0.6-0.3-1.5,0-2.4
			c0.4-1,0.9-2.1,1.8-2.8c1.1-0.9,2.4-1.4,4-1.5C49.1,0,50.1,0,50.6,0h26.8l-1,2.9L55.1,3c0,0-0.5,0-0.9,0c-1,0-1.6,0-2,0.2
			c-0.3,0.2-0.5,0.4-0.7,0.7c-0.2,0.3-0.2,0.6-0.1,0.9c0.3,0.3,0.7,0.3,1.4,0.4c0.5,0,2.6,0,2.6,0h14.3c0,0,1.4,0,2.6,0.1
			c1.5,0.1,2.5,0.5,3,1.4c0.6,0.9,0.4,1.9,0,3c-0.5,1.6-1.1,2.3-1.7,2.8c-1,0.8-2.4,1.3-3.2,1.4C69.2,14,66.9,13.9,65.5,14"/>
	</g>
	<polygon fill="#FFFFFF" points="108,0 97.7,4.2 90.8,0.1 79.9,0.1 91.1,7 73.9,14.1 85.1,14.1 95.6,9.6 102.9,14.1 114.5,14.1 
		102.2,6.8 118.4,0 	"/>
</g>
</svg>
